<?xml version="1.0" encoding="iso-8859-1"?>
<!-- Generator: Adobe Illustrator 19.0.0, SVG Export Plug-In . SVG Version: 6.00 Build 0)  -->
<svg version="1.1" id="Capa_1" xmlns="http://www.w3.org/2000/svg" xmlns:xlink="http://www.w3.org/1999/xlink" x="0px" y="0px"
	 viewBox="0 0 430.216 430.216" style="enable-background:new 0 0 430.216 430.216;" xml:space="preserve">
<path id="XMLID_268_" d="M137.769,408.692h154.68v18h-154.68V408.692z M430.216,113.779l-8.21,16.019l-39.644-20.32v278.58H47.856
	V109.477L8.21,129.798L0,113.779L215.108,3.523L430.216,113.779z M304.737,266.421c0-49.421-40.208-89.628-89.629-89.628
	S125.479,217,125.479,266.421v103.637h179.258V266.421z M364.362,100.252L215.108,23.75L65.856,100.251v269.807h41.624V266.421
	c0-59.347,48.282-107.628,107.628-107.628c59.347,0,107.63,48.282,107.63,107.628v103.637h41.625V100.252z M189.682,78.628
	l-13.221,12.216c3.566,3.859,5.529,8.849,5.529,14.052c0,5.204-1.963,10.194-5.529,14.052l13.22,12.217
	c4.562-4.936,7.717-10.877,9.248-17.269h32.355c1.531,6.391,4.687,12.332,9.248,17.269l13.221-12.216
	c-3.565-3.859-5.529-8.85-5.529-14.053c0-5.202,1.964-10.193,5.53-14.053l-13.222-12.214c-4.561,4.937-7.715,10.877-9.247,17.267
	H198.93C197.398,89.506,194.243,83.564,189.682,78.628z"/>
<g>
</g>
<g>
</g>
<g>
</g>
<g>
</g>
<g>
</g>
<g>
</g>
<g>
</g>
<g>
</g>
<g>
</g>
<g>
</g>
<g>
</g>
<g>
</g>
<g>
</g>
<g>
</g>
<g>
</g>
</svg>
